<svg xmlns="http://www.w3.org/2000/svg"><defs>
<symbol id="es" viewBox="0 0 32 32"><path d="M1,24c0,2.209,1.791,4,4,4H27c2.209,0,4-1.791,4-4V15H1v9Z" fill="#c73a29"></path><path d="M27,4H5c-2.209,0-4,1.791-4,4v8H31V8c0-2.209-1.791-4-4-4Z" fill="#fff"></path><path d="M5,4H13v12H1V8c0-2.208,1.792-4,4-4Z" fill="#1435a1"></path><path d="M27,4H5c-2.209,0-4,1.791-4,4V24c0,2.209,1.791,4,4,4H27c2.209,0,4-1.791,4-4V8c0-2.209-1.791-4-4-4Zm3,20c0,1.654-1.346,3-3,3H5c-1.654,0-3-1.346-3-3V8c0-1.654,1.346-3,3-3H27c1.654,0,3,1.346,3,3V24Z" opacity=".15"></path><path fill="#fff" d="M8.146 10.674L10.001 9.326 7.708 9.326 7 7.146 6.292 9.326 3.999 9.326 5.854 10.674 5.145 12.854 7 11.507 8.855 12.854 8.146 10.674z"></path><path d="M27,5H5c-1.657,0-3,1.343-3,3v1c0-1.657,1.343-3,3-3H27c1.657,0,3,1.343,3,3v-1c0-1.657-1.343-3-3-3Z" fill="#fff" opacity=".2"></path></symbol>
<symbol id="en" viewBox="0 0 32 32"><rect x="1" y="4" width="30" height="24" rx="4" ry="4" fill="#fff"></rect><path d="M1.638,5.846H30.362c-.711-1.108-1.947-1.846-3.362-1.846H5c-1.414,0-2.65,.738-3.362,1.846Z" fill="#a62842"></path><path d="M2.03,7.692c-.008,.103-.03,.202-.03,.308v1.539H31v-1.539c0-.105-.022-.204-.03-.308H2.03Z" fill="#a62842"></path><path fill="#a62842" d="M2 11.385H31V13.231H2z"></path><path fill="#a62842" d="M2 15.077H31V16.923000000000002H2z"></path><path fill="#a62842" d="M1 18.769H31V20.615H1z"></path><path d="M1,24c0,.105,.023,.204,.031,.308H30.969c.008-.103,.031-.202,.031-.308v-1.539H1v1.539Z" fill="#a62842"></path><path d="M30.362,26.154H1.638c.711,1.108,1.947,1.846,3.362,1.846H27c1.414,0,2.65-.738,3.362-1.846Z" fill="#a62842"></path><path d="M5,4h11v12.923H1V8c0-2.208,1.792-4,4-4Z" fill="#102d5e"></path><path d="M27,4H5c-2.209,0-4,1.791-4,4V24c0,2.209,1.791,4,4,4H27c2.209,0,4-1.791,4-4V8c0-2.209-1.791-4-4-4Zm3,20c0,1.654-1.346,3-3,3H5c-1.654,0-3-1.346-3-3V8c0-1.654,1.346-3,3-3H27c1.654,0,3,1.346,3,3V24Z" opacity=".15"></path><path d="M27,5H5c-1.657,0-3,1.343-3,3v1c0-1.657,1.343-3,3-3H27c1.657,0,3,1.343,3,3v-1c0-1.657-1.343-3-3-3Z" fill="#fff" opacity=".2"></path><path fill="#fff" d="M4.601 7.463L5.193 7.033 4.462 7.033 4.236 6.338 4.01 7.033 3.279 7.033 3.87 7.463 3.644 8.158 4.236 7.729 4.827 8.158 4.601 7.463z"></path><path fill="#fff" d="M7.58 7.463L8.172 7.033 7.441 7.033 7.215 6.338 6.989 7.033 6.258 7.033 6.849 7.463 6.623 8.158 7.215 7.729 7.806 8.158 7.58 7.463z"></path><path fill="#fff" d="M10.56 7.463L11.151 7.033 10.42 7.033 10.194 6.338 9.968 7.033 9.237 7.033 9.828 7.463 9.603 8.158 10.194 7.729 10.785 8.158 10.56 7.463z"></path><path fill="#fff" d="M6.066 9.283L6.658 8.854 5.927 8.854 5.701 8.158 5.475 8.854 4.744 8.854 5.335 9.283 5.109 9.979 5.701 9.549 6.292 9.979 6.066 9.283z"></path><path fill="#fff" d="M9.046 9.283L9.637 8.854 8.906 8.854 8.68 8.158 8.454 8.854 7.723 8.854 8.314 9.283 8.089 9.979 8.68 9.549 9.271 9.979 9.046 9.283z"></path><path fill="#fff" d="M12.025 9.283L12.616 8.854 11.885 8.854 11.659 8.158 11.433 8.854 10.702 8.854 11.294 9.283 11.068 9.979 11.659 9.549 12.251 9.979 12.025 9.283z"></path><path fill="#fff" d="M6.066 12.924L6.658 12.494 5.927 12.494 5.701 11.799 5.475 12.494 4.744 12.494 5.335 12.924 5.109 13.619 5.701 13.19 6.292 13.619 6.066 12.924z"></path><path fill="#fff" d="M9.046 12.924L9.637 12.494 8.906 12.494 8.68 11.799 8.454 12.494 7.723 12.494 8.314 12.924 8.089 13.619 8.68 13.19 9.271 13.619 9.046 12.924z"></path><path fill="#fff" d="M12.025 12.924L12.616 12.494 11.885 12.494 11.659 11.799 11.433 12.494 10.702 12.494 11.294 12.924 11.068 13.619 11.659 13.19 12.251 13.619 12.025 12.924z"></path><path fill="#fff" d="M13.539 7.463L14.13 7.033 13.399 7.033 13.173 6.338 12.947 7.033 12.216 7.033 12.808 7.463 12.582 8.158 13.173 7.729 13.765 8.158 13.539 7.463z"></path><path fill="#fff" d="M4.601 11.104L5.193 10.674 4.462 10.674 4.236 9.979 4.01 10.674 3.279 10.674 3.87 11.104 3.644 11.799 4.236 11.369 4.827 11.799 4.601 11.104z"></path><path fill="#fff" d="M7.58 11.104L8.172 10.674 7.441 10.674 7.215 9.979 6.989 10.674 6.258 10.674 6.849 11.104 6.623 11.799 7.215 11.369 7.806 11.799 7.58 11.104z"></path><path fill="#fff" d="M10.56 11.104L11.151 10.674 10.42 10.674 10.194 9.979 9.968 10.674 9.237 10.674 9.828 11.104 9.603 11.799 10.194 11.369 10.785 11.799 10.56 11.104z"></path><path fill="#fff" d="M13.539 11.104L14.13 10.674 13.399 10.674 13.173 9.979 12.947 10.674 12.216 10.674 12.808 11.104 12.582 11.799 13.173 11.369 13.765 11.799 13.539 11.104z"></path><path fill="#fff" d="M4.601 14.744L5.193 14.315 4.462 14.315 4.236 13.619 4.01 14.315 3.279 14.315 3.87 14.744 3.644 15.44 4.236 15.01 4.827 15.44 4.601 14.744z"></path><path fill="#fff" d="M7.58 14.744L8.172 14.315 7.441 14.315 7.215 13.619 6.989 14.315 6.258 14.315 6.849 14.744 6.623 15.44 7.215 15.01 7.806 15.44 7.58 14.744z"></path><path fill="#fff" d="M10.56 14.744L11.151 14.315 10.42 14.315 10.194 13.619 9.968 14.315 9.237 14.315 9.828 14.744 9.603 15.44 10.194 15.01 10.785 15.44 10.56 14.744z"></path><path fill="#fff" d="M13.539 14.744L14.13 14.315 13.399 14.315 13.173 13.619 12.947 14.315 12.216 14.315 12.808 14.744 12.582 15.44 13.173 15.01 13.765 15.44 13.539 14.744z"></path></symbol>
<symbol id="sg" viewBox="0 0 32 32"><path d="M1,24c0,2.209,1.791,4,4,4H27c2.209,0,4-1.791,4-4V15H1v9Z" fill="#fff"></path><path d="M27,4H5c-2.209,0-4,1.791-4,4v8H31V8c0-2.209-1.791-4-4-4Z" fill="#db3c3f"></path><path d="M5,28H27c2.209,0,4-1.791,4-4V8c0-2.209-1.791-4-4-4H5c-2.209,0-4,1.791-4,4V24c0,2.209,1.791,4,4,4ZM2,8c0-1.654,1.346-3,3-3H27c1.654,0,3,1.346,3,3V24c0,1.654-1.346,3-3,3H5c-1.654,0-3-1.346-3-3V8Z" opacity=".15"></path><path d="M27,5H5c-1.657,0-3,1.343-3,3v1c0-1.657,1.343-3,3-3H27c1.657,0,3,1.343,3,3v-1c0-1.657-1.343-3-3-3Z" fill="#fff" opacity=".2"></path><path d="M6.811,10.5c0-1.898,1.321-3.487,3.094-3.897-.291-.067-.594-.103-.906-.103-2.209,0-4,1.791-4,4s1.791,4,4,4c.311,0,.615-.036,.906-.103-1.773-.41-3.094-1.999-3.094-3.897Z" fill="#fff"></path><path fill="#fff" d="M10.81 8.329L10.576 9.048 11.189 8.603 11.801 9.048 11.567 8.329 12.179 7.884 11.423 7.884 11.189 7.164 10.955 7.884 10.198 7.884 10.81 8.329z"></path><path fill="#fff" d="M14.361 9.469L13.605 9.469 13.371 8.749 13.137 9.469 12.38 9.469 12.992 9.914 12.759 10.634 13.371 10.189 13.983 10.634 13.749 9.914 14.361 9.469z"></path><path fill="#fff" d="M10.074 12.034L9.84 11.315 9.606 12.034 8.85 12.034 9.462 12.479 9.228 13.199 9.84 12.754 10.452 13.199 10.218 12.479 10.831 12.034 10.074 12.034z"></path><path fill="#fff" d="M12.771 12.034L12.537 11.315 12.303 12.034 11.547 12.034 12.159 12.479 11.925 13.199 12.537 12.754 13.149 13.199 12.916 12.479 13.528 12.034 12.771 12.034z"></path><path fill="#fff" d="M9.24 9.469L9.007 8.75 8.773 9.469 8.016 9.469 8.628 9.914 8.394 10.634 9.007 10.189 9.619 10.634 9.385 9.914 9.997 9.469 9.24 9.469z"></path></symbol>
<symbol id="pt" viewBox="0 0 32 32"><rect x="1" y="4" width="30" height="24" rx="4" ry="4" fill="#459a45"></rect><path d="M27,4H5c-2.209,0-4,1.791-4,4V24c0,2.209,1.791,4,4,4H27c2.209,0,4-1.791,4-4V8c0-2.209-1.791-4-4-4Zm3,20c0,1.654-1.346,3-3,3H5c-1.654,0-3-1.346-3-3V8c0-1.654,1.346-3,3-3H27c1.654,0,3,1.346,3,3V24Z" opacity=".15"></path><path d="M3.472,16l12.528,8,12.528-8-12.528-8L3.472,16Z" fill="#fedf00"></path><circle cx="16" cy="16" r="5" fill="#0a2172"></circle><path d="M14,14.5c-.997,0-1.958,.149-2.873,.409-.078,.35-.126,.71-.127,1.083,.944-.315,1.951-.493,2.999-.493,2.524,0,4.816,.996,6.519,2.608,.152-.326,.276-.666,.356-1.026-1.844-1.604-4.245-2.583-6.875-2.583Z" fill="#fff"></path><path d="M27,5H5c-1.657,0-3,1.343-3,3v1c0-1.657,1.343-3,3-3H27c1.657,0,3,1.343,3,3v-1c0-1.657-1.343-3-3-3Z" fill="#fff" opacity=".2"></path></symbol>
<symbol id="code" width="24" height="24" viewBox="0 0 24 24" fill="none" stroke="currentColor" stroke-width="2" stroke-linecap="round" stroke-linejoin="round" class="lucide lucide-code-xml-icon lucide-code-xml"><path d="m18 16 4-4-4-4"/><path d="m6 8-4 4 4 4"/><path d="m14.5 4-5 16"/></symbol>
<symbol id="fork" width="24" height="24" viewBox="0 0 24 24" fill="none" stroke="currentColor" stroke-width="2" stroke-linecap="round" stroke-linejoin="round" class="lucide lucide-git-fork-icon lucide-git-fork"><circle cx="12" cy="18" r="3"/><circle cx="6" cy="6" r="3"/><circle cx="18" cy="6" r="3"/><path d="M18 9v2c0 .6-.4 1-1 1H7c-.6 0-1-.4-1-1V9"/><path d="M12 12v3"/></symbol>
<symbol id="star" width="24" height="24" viewBox="0 0 24 24" fill="none" stroke="currentColor" stroke-width="2" stroke-linecap="round" stroke-linejoin="round" class="lucide lucide-star-icon lucide-star"><path d="M11.525 2.295a.53.53 0 0 1 .95 0l2.31 4.679a2.123 2.123 0 0 0 1.595 1.16l5.166.756a.53.53 0 0 1 .294.904l-3.736 3.638a2.123 2.123 0 0 0-.611 1.878l.882 5.14a.53.53 0 0 1-.771.56l-4.618-2.428a2.122 2.122 0 0 0-1.973 0L6.396 21.01a.53.53 0 0 1-.77-.56l.881-5.139a2.122 2.122 0 0 0-.611-1.879L2.16 9.795a.53.53 0 0 1 .294-.906l5.165-.755a2.122 2.122 0 0 0 1.597-1.16z"/></symbol>
<symbol id="code" width="24" height="24" viewBox="0 0 24 24" fill="none" stroke="currentColor" stroke-width="2" stroke-linecap="round" stroke-linejoin="round" class="lucide lucide-code"><polyline points="16 18 22 12 16 6"/><polyline points="8 6 2 12 8 18"/></symbol>
<symbol id="eye" width="24" height="24" viewBox="0 0 24 24" fill="none" stroke="currentColor" stroke-width="2" stroke-linecap="round" stroke-linejoin="round" class="lucide lucide-eye-icon lucide-eye"><path d="M2.062 12.348a1 1 0 0 1 0-.696 10.75 10.75 0 0 1 19.876 0 1 1 0 0 1 0 .696 10.75 10.75 0 0 1-19.876 0"/><circle cx="12" cy="12" r="3"/></symbol>
<symbol id="moon" width="24" height="24" viewBox="0 0 24 24" fill="none" stroke="currentColor" stroke-width="2" stroke-linecap="round" stroke-linejoin="round" class="lucide lucide-moon-icon lucide-moon"><path d="M20.985 12.486a9 9 0 1 1-9.473-9.472c.405-.022.617.46.402.803a6 6 0 0 0 8.268 8.268c.344-.215.825-.004.803.401"/></symbol>
<symbol id="sun" width="24" height="24" viewBox="0 0 24 24" fill="none" stroke="currentColor" stroke-width="2" stroke-linecap="round" stroke-linejoin="round" class="lucide lucide-sun-icon lucide-sun"><circle cx="12" cy="12" r="4"/><path d="M12 2v2"/><path d="M12 20v2"/><path d="m4.93 4.93 1.41 1.41"/><path d="m17.66 17.66 1.41 1.41"/><path d="M2 12h2"/><path d="M20 12h2"/><path d="m6.34 17.66-1.41 1.41"/><path d="m19.07 4.93-1.41 1.41"/></symbol>
</defs></svg>
